<svg viewBox="0 0 783 778" xmlns="http://www.w3.org/2000/svg" fill="none" id="vg" name="svgart$" cursor="" style="background:#000000;"><path d="M372.36 65.93L581.80 151.14L672.36 365.93L581.80 580.72L372.36 665.93L162.92 580.72L72.36 365.93L162.92 151.14ZM162.92 151.14L581.80 151.14M162.92 151.14L672.36 365.93M162.92 151.14L581.80 580.72M162.92 151.14L372.36 665.93M162.92 151.14L162.92 580.72M372.36 65.93L672.36 365.93M372.36 65.93L581.80 580.72M372.36 65.93L372.36 665.93M372.36 65.93L162.92 580.72M372.36 65.93L72.36 365.93M581.80 151.14L581.80 580.72M581.80 151.14L372.36 665.93M581.80 151.14L162.92 580.72M581.80 151.14L72.36 365.93M672.36 365.93L372.36 665.93M672.36 365.93L162.92 580.72M672.36 365.93L72.36 365.93M581.80 580.72L162.92 580.72M581.80 580.72L72.36 365.93M371.23 365.38" stroke="#434343" stroke-width="2" stroke-linecap="round" stroke-dasharray="0" data-poly="8" fill="#ffffff11"></path><path d="M372.36 65.93 L581.80 151.14" stroke="white" name="cloneart$" stroke-width="2" stroke-linecap="round" stroke-dasharray="0" data-value="0 1 2 3" data-qz=""></path><path d="M581.80 151.14 L672.36 365.93" stroke="white" name="cloneart$" stroke-width="2" stroke-linecap="round" stroke-dasharray="0" data-value="2 3 4 5" data-qz=""></path><path d="M672.36 365.93 L581.80 580.72" stroke="white" name="cloneart$" stroke-width="2" stroke-linecap="round" stroke-dasharray="0" data-value="4 5 6 7" data-qz=""></path><path d="M581.80 580.72 L372.36 665.93" stroke="white" name="cloneart$" stroke-width="2" stroke-linecap="round" stroke-dasharray="0" data-value="6 7 8 9" data-qz=""></path><path d="M372.36 665.93 L162.92 580.72" stroke="white" name="cloneart$" stroke-width="2" stroke-linecap="round" stroke-dasharray="0" data-value="8 9 10 11" data-qz=""></path><path d="M162.92 580.72 L72.36 365.93" stroke="white" name="cloneart$" stroke-width="2" stroke-linecap="round" stroke-dasharray="0" data-value="10 11 12 13" data-qz=""></path><path d="M72.36 365.93 L162.92 151.14" stroke="white" name="cloneart$" stroke-width="2" stroke-linecap="round" stroke-dasharray="0" data-value="12 13 14 15" data-qz=""></path><path d="M162.92 151.14 372.36 65.93" stroke="white" name="cloneart$" stroke-width="2" stroke-linecap="round" stroke-dasharray="0" data-value="14 15 0 1" data-qz="0 14"></path><path d="M162.92 151.14 L581.80 151.14" stroke="white" name="cloneart$" stroke-width="2" stroke-linecap="round" stroke-dasharray="0" data-value="17 18 19 20" data-qz=""></path><path d="M162.92 151.14 L672.36 365.93" stroke="white" name="cloneart$" stroke-width="2" stroke-linecap="round" stroke-dasharray="0" data-value="21 22 23 24" data-qz=""></path><path d="M162.92 151.14 L581.80 580.72" stroke="white" name="cloneart$" stroke-width="2" stroke-linecap="round" stroke-dasharray="0" data-value="25 26 27 28" data-qz=""></path><path d="M162.92 151.14 L372.36 665.93" stroke="white" name="cloneart$" stroke-width="2" stroke-linecap="round" stroke-dasharray="0" data-value="29 30 31 32" data-qz=""></path><path d="M162.92 151.14 L162.92 580.72" stroke="white" name="cloneart$" stroke-width="2" stroke-linecap="round" stroke-dasharray="0" data-value="33 34 35 36" data-qz=""></path><path d="M372.36 65.93 L672.36 365.93" stroke="white" name="cloneart$" stroke-width="2" stroke-linecap="round" stroke-dasharray="0" data-value="37 38 39 40" data-qz=""></path><path d="M372.36 65.93 L581.80 580.72" stroke="white" name="cloneart$" stroke-width="2" stroke-linecap="round" stroke-dasharray="0" data-value="41 42 43 44" data-qz=""></path><path d="M372.36 65.93 L372.36 665.93" stroke="white" name="cloneart$" stroke-width="2" stroke-linecap="round" stroke-dasharray="0" data-value="45 46 47 48" data-qz=""></path><path d="M372.36 65.93 L162.92 580.72" stroke="white" name="cloneart$" stroke-width="2" stroke-linecap="round" stroke-dasharray="0" data-value="49 50 51 52" data-qz=""></path><path d="M372.36 65.93 L72.36 365.93" stroke="white" name="cloneart$" stroke-width="2" stroke-linecap="round" stroke-dasharray="0" data-value="53 54 55 56" data-qz=""></path><path d="M581.80 151.14 L581.80 580.72" stroke="white" name="cloneart$" stroke-width="2" stroke-linecap="round" stroke-dasharray="0" data-value="57 58 59 60" data-qz=""></path><path d="M581.80 151.14 L372.36 665.93" stroke="white" name="cloneart$" stroke-width="2" stroke-linecap="round" stroke-dasharray="0" data-value="61 62 63 64" data-qz=""></path><path d="M581.80 151.14 L162.92 580.72" stroke="white" name="cloneart$" stroke-width="2" stroke-linecap="round" stroke-dasharray="0" data-value="65 66 67 68" data-qz=""></path><path d="M581.80 151.14 L72.36 365.93" stroke="white" name="cloneart$" stroke-width="2" stroke-linecap="round" stroke-dasharray="0" data-value="69 70 71 72" data-qz=""></path><path d="M672.36 365.93 L372.36 665.93" stroke="white" name="cloneart$" stroke-width="2" stroke-linecap="round" stroke-dasharray="0" data-value="73 74 75 76" data-qz=""></path><path d="M672.36 365.93 L162.92 580.72" stroke="white" name="cloneart$" stroke-width="2" stroke-linecap="round" stroke-dasharray="0" data-value="77 78 79 80" data-qz=""></path><path d="M672.36 365.93 L72.36 365.93" stroke="white" name="cloneart$" stroke-width="2" stroke-linecap="round" stroke-dasharray="0" data-value="81 82 83 84" data-qz=""></path><path d="M581.80 580.72 L162.92 580.72" stroke="white" name="cloneart$" stroke-width="2" stroke-linecap="round" stroke-dasharray="0" data-value="85 86 87 88" data-qz=""></path><path d="M581.80 580.72 L72.36 365.93" stroke="white" name="cloneart$" stroke-width="2" stroke-linecap="round" stroke-dasharray="0" data-value="89 90 91 92" data-qz=""></path><circle cx="372.36" cy="65.93" r=".4%" stroke-width=".2%" fill="white" stroke="white" name="vlineart$" data-value="0" data-mz="" data-multi=""></circle><circle cx="581.80" cy="151.14" r=".4%" stroke-width=".2%" fill="white" stroke="white" name="vlineart$" data-value="2" data-mz="" data-multi=""></circle><circle cx="672.36" cy="365.93" r=".4%" stroke-width=".2%" fill="white" stroke="white" name="vlineart$" data-value="4" data-mz="" data-multi=""></circle><circle cx="581.80" cy="580.72" r=".4%" stroke-width=".2%" fill="white" stroke="white" name="vlineart$" data-value="6" data-mz="" data-multi=""></circle><circle cx="372.36" cy="665.93" r=".4%" stroke-width=".2%" fill="white" stroke="white" name="vlineart$" data-value="8" data-mz="" data-multi=""></circle><circle cx="162.92" cy="580.72" r=".4%" stroke-width=".2%" fill="white" stroke="white" name="vlineart$" data-value="10" data-mz="" data-multi=""></circle><circle cx="72.36" cy="365.93" r=".4%" stroke-width=".2%" fill="white" stroke="white" name="vlineart$" data-value="12" data-mz="" data-multi=""></circle><circle cx="162.92" cy="151.14" r=".4%" stroke-width=".2%" fill="white" stroke="white" name="vlineart$" data-value="14" data-mz="0" data-multi=""></circle><circle cx="162.92" cy="151.14" r=".4%" stroke-width=".2%" fill="white" stroke="white" name="vlineart$" data-value="17" data-mz="" data-multi=""></circle><circle cx="581.80" cy="151.14" r=".4%" stroke-width=".2%" fill="white" stroke="white" name="vlineart$" data-value="19" data-mz="" data-multi=""></circle><circle cx="162.92" cy="151.14" r=".4%" stroke-width=".2%" fill="white" stroke="white" name="vlineart$" data-value="21" data-mz="" data-multi=""></circle><circle cx="672.36" cy="365.93" r=".4%" stroke-width=".2%" fill="white" stroke="white" name="vlineart$" data-value="23" data-mz="" data-multi=""></circle><circle cx="162.92" cy="151.14" r=".4%" stroke-width=".2%" fill="white" stroke="white" name="vlineart$" data-value="25" data-mz="" data-multi=""></circle><circle cx="581.80" cy="580.72" r=".4%" stroke-width=".2%" fill="white" stroke="white" name="vlineart$" data-value="27" data-mz="" data-multi=""></circle><circle cx="162.92" cy="151.14" r=".4%" stroke-width=".2%" fill="white" stroke="white" name="vlineart$" data-value="29" data-mz="" data-multi=""></circle><circle cx="372.36" cy="665.93" r=".4%" stroke-width=".2%" fill="white" stroke="white" name="vlineart$" data-value="31" data-mz="" data-multi=""></circle><circle cx="162.92" cy="151.14" r=".4%" stroke-width=".2%" fill="white" stroke="white" name="vlineart$" data-value="33" data-mz="" data-multi=""></circle><circle cx="162.92" cy="580.72" r=".4%" stroke-width=".2%" fill="white" stroke="white" name="vlineart$" data-value="35" data-mz="" data-multi=""></circle><circle cx="372.36" cy="65.93" r=".4%" stroke-width=".2%" fill="white" stroke="white" name="vlineart$" data-value="37" data-mz="" data-multi=""></circle><circle cx="672.36" cy="365.93" r=".4%" stroke-width=".2%" fill="white" stroke="white" name="vlineart$" data-value="39" data-mz="" data-multi=""></circle><circle cx="372.36" cy="65.93" r=".4%" stroke-width=".2%" fill="white" stroke="white" name="vlineart$" data-value="41" data-mz="" data-multi=""></circle><circle cx="581.80" cy="580.72" r=".4%" stroke-width=".2%" fill="white" stroke="white" name="vlineart$" data-value="43" data-mz="" data-multi=""></circle><circle cx="372.36" cy="65.93" r=".4%" stroke-width=".2%" fill="white" stroke="white" name="vlineart$" data-value="45" data-mz="" data-multi=""></circle><circle cx="372.36" cy="665.93" r=".4%" stroke-width=".2%" fill="white" stroke="white" name="vlineart$" data-value="47" data-mz="" data-multi=""></circle><circle cx="372.36" cy="65.93" r=".4%" stroke-width=".2%" fill="white" stroke="white" name="vlineart$" data-value="49" data-mz="" data-multi=""></circle><circle cx="162.92" cy="580.72" r=".4%" stroke-width=".2%" fill="white" stroke="white" name="vlineart$" data-value="51" data-mz="" data-multi=""></circle><circle cx="372.36" cy="65.93" r=".4%" stroke-width=".2%" fill="white" stroke="white" name="vlineart$" data-value="53" data-mz="" data-multi=""></circle><circle cx="72.36" cy="365.93" r=".4%" stroke-width=".2%" fill="white" stroke="white" name="vlineart$" data-value="55" data-mz="" data-multi=""></circle><circle cx="581.80" cy="151.14" r=".4%" stroke-width=".2%" fill="white" stroke="white" name="vlineart$" data-value="57" data-mz="" data-multi=""></circle><circle cx="581.80" cy="580.72" r=".4%" stroke-width=".2%" fill="white" stroke="white" name="vlineart$" data-value="59" data-mz="" data-multi=""></circle><circle cx="581.80" cy="151.14" r=".4%" stroke-width=".2%" fill="white" stroke="white" name="vlineart$" data-value="61" data-mz="" data-multi=""></circle><circle cx="372.36" cy="665.93" r=".4%" stroke-width=".2%" fill="white" stroke="white" name="vlineart$" data-value="63" data-mz="" data-multi=""></circle><circle cx="581.80" cy="151.14" r=".4%" stroke-width=".2%" fill="white" stroke="white" name="vlineart$" data-value="65" data-mz="" data-multi=""></circle><circle cx="162.92" cy="580.72" r=".4%" stroke-width=".2%" fill="white" stroke="white" name="vlineart$" data-value="67" data-mz="" data-multi=""></circle><circle cx="581.80" cy="151.14" r=".4%" stroke-width=".2%" fill="white" stroke="white" name="vlineart$" data-value="69" data-mz="" data-multi=""></circle><circle cx="72.36" cy="365.93" r=".4%" stroke-width=".2%" fill="white" stroke="white" name="vlineart$" data-value="71" data-mz="" data-multi=""></circle><circle cx="672.36" cy="365.93" r=".4%" stroke-width=".2%" fill="white" stroke="white" name="vlineart$" data-value="73" data-mz="" data-multi=""></circle><circle cx="372.36" cy="665.93" r=".4%" stroke-width=".2%" fill="white" stroke="white" name="vlineart$" data-value="75" data-mz="" data-multi=""></circle><circle cx="672.36" cy="365.93" r=".4%" stroke-width=".2%" fill="white" stroke="white" name="vlineart$" data-value="77" data-mz="" data-multi=""></circle><circle cx="162.92" cy="580.72" r=".4%" stroke-width=".2%" fill="white" stroke="white" name="vlineart$" data-value="79" data-mz="" data-multi=""></circle><circle cx="672.36" cy="365.93" r=".4%" stroke-width=".2%" fill="white" stroke="white" name="vlineart$" data-value="81" data-mz="" data-multi=""></circle><circle cx="72.36" cy="365.93" r=".4%" stroke-width=".2%" fill="white" stroke="white" name="vlineart$" data-value="83" data-mz="" data-multi=""></circle><circle cx="581.80" cy="580.72" r=".4%" stroke-width=".2%" fill="white" stroke="white" name="vlineart$" data-value="85" data-mz="" data-multi=""></circle><circle cx="162.92" cy="580.72" r=".4%" stroke-width=".2%" fill="white" stroke="white" name="vlineart$" data-value="87" data-mz="" data-multi=""></circle><circle cx="581.80" cy="580.72" r=".4%" stroke-width=".2%" fill="white" stroke="white" name="vlineart$" data-value="89" data-mz="" data-multi=""></circle><circle cx="72.36" cy="365.93" r=".4%" stroke-width=".2%" fill="white" stroke="white" name="vlineart$" data-value="91" data-mz="" data-multi=""></circle><circle cx="371.23" cy="365.38" r=".4%" stroke-width=".2%" fill="white" stroke="white" name="vlineart$" data-value="93" data-mz="" data-multi=""></circle></svg>